#Produced by polyHédronisme http://levskaya.github.com/polyhedronisme
group dn6x4dkdaT
#vertices
v 0.20705911675947028 -0.20705911675947028 -0.8775945419948773
v -3.674261896535726e-17 -1.8065234501529784e-17 -1
v -0.20705911675947028 -0.20705911675947034 -0.8775945419948773
v -0.20705911675947034 0.20705911675947028 -0.8775945419948775
v 0.20705911675947028 0.20705911675947036 -0.8775945419948775
v 0.8775945419948773 0.2070591167594707 0.20705911675947078
v 0.9999999999999999 1.1526109237077825e-16 1.3373994420354267e-16
v 0.8775945419948772 -0.20705911675947042 0.2070591167594707
v 0.8775945419948773 -0.20705911675947047 -0.20705911675947059
v 0.8775945419948773 0.20705911675947064 -0.2070591167594705
v -0.8775945419948775 -0.20705911675947064 -0.20705911675947056
v -0.9999999999999999 4.4938863918769935e-17 1.460896596533554e-16
v -0.8775945419948773 -0.20705911675947064 0.20705911675947086
v -0.8775945419948772 0.20705911675947072 0.20705911675947078
v -0.8775945419948775 0.2070591167594707 -0.20705911675947059
v -0.2070591167594707 0.8775945419948773 -0.2070591167594705
v 7.445231282301924e-17 0.9999999999999999 1.9138877892571365e-16
v -0.2070591167594705 0.8775945419948772 0.20705911675947059
v 0.20705911675947078 0.877594541994877 0.20705911675947083
v 0.20705911675947059 0.8775945419948772 -0.20705911675947034
v -0.2070591167594707 0.2070591167594707 0.8775945419948773
v -7.137015485110917e-17 2.466285382606172e-17 0.9999999999999999
v -0.20705911675947083 -0.2070591167594707 0.8775945419948773
v 0.20705911675947064 -0.20705911675947059 0.8775945419948773
v 0.20705911675947083 0.20705911675947078 0.8775945419948775
v 0.20705911675947042 -0.8775945419948775 0.20705911675947064
v -1.4999041714625292e-16 -1 1.6065027864887097e-16
v -0.20705911675947064 -0.8775945419948773 0.2070591167594707
v -0.20705911675947056 -0.8775945419948775 -0.20705911675947028
v 0.2070591167594705 -0.8775945419948775 -0.20705911675947042
v 0.20562273127563604 0.2056227312756361 -0.6167202066983496
v 0.29554134033018253 0.2955413403301825 -0.2955413403301827
v 0.05032839370603321 0.488818637771794 -0.48881863777179435
v 0.20562273127563618 0.6167202066983491 -0.20562273127563613
v 0.4888186377717943 0.4888186377717941 -0.05032839370603313
v 0.6167202066983493 0.20562273127563624 -0.20562273127563624
v 0.488818637771794 0.050328393706033335 -0.48881863777179435
v -0.4888186377717942 0.050328393706033314 -0.48881863777179435
v -0.29554134033018264 0.29554134033018264 -0.2955413403301827
v -0.6167202066983495 0.2056227312756364 -0.20562273127563632
v -0.4888186377717943 0.48881863777179435 -0.05032839370603338
v -0.2056227312756364 0.6167202066983493 -0.20562273127563627
v -0.05032839370603346 0.4888186377717941 -0.48881863777179435
v -0.20562273127563604 0.20562273127563613 -0.6167202066983496
v 0.48881863777179435 0.4888186377717942 0.05032839370603361
v 0.2955413403301827 0.29554134033018264 0.2955413403301828
v 0.2056227312756364 0.6167202066983491 0.2056227312756365
v 0.05032839370603345 0.48881863777179435 0.48881863777179446
v 0.2056227312756365 0.2056227312756365 0.6167202066983494
v 0.48881863777179435 0.05032839370603349 0.48881863777179435
v 0.6167202066983493 0.20562273127563638 0.2056227312756365
v 0.488818637771794 -0.05032839370603326 -0.48881863777179435
v 0.29554134033018253 -0.29554134033018253 -0.2955413403301826
v 0.6167202066983493 -0.20562273127563613 -0.20562273127563624
v 0.4888186377717941 -0.4888186377717942 -0.05032839370603324
v 0.20562273127563618 -0.6167202066983495 -0.2056227312756361
v 0.0503283937060333 -0.4888186377717942 -0.4888186377717942
v 0.20562273127563604 -0.205622731275636 -0.6167202066983495
v -0.48881863777179446 0.050328393706033356 0.4888186377717943
v -0.29554134033018264 0.2955413403301827 0.29554134033018264
v -0.20562273127563638 0.2056227312756364 0.6167202066983493
v -0.050328393706033245 0.48881863777179435 0.48881863777179435
v -0.20562273127563632 0.6167202066983493 0.20562273127563627
v -0.4888186377717943 0.48881863777179446 0.05032839370603332
v -0.6167202066983493 0.2056227312756364 0.20562273127563638
v -0.4888186377717942 -0.4888186377717943 0.050328393706033515
v -0.29554134033018264 -0.2955413403301827 0.2955413403301827
v -0.20562273127563627 -0.6167202066983494 0.2056227312756364
v -0.05032839370603341 -0.48881863777179446 0.4888186377717943
v -0.2056227312756364 -0.20562273127563632 0.6167202066983493
v -0.48881863777179446 -0.050328393706033356 0.4888186377717943
v -0.6167202066983494 -0.20562273127563638 0.20562273127563646
v 0.48881863777179435 -0.05032839370603319 0.48881863777179435
v 0.29554134033018264 -0.29554134033018264 0.2955413403301827
v 0.20562273127563638 -0.20562273127563624 0.6167202066983494
v 0.05032839370603324 -0.48881863777179446 0.4888186377717943
v 0.20562273127563618 -0.6167202066983495 0.20562273127563632
v 0.4888186377717942 -0.4888186377717943 0.05032839370603345
v 0.6167202066983491 -0.20562273127563613 0.2056227312756364
v -0.050328393706033335 -0.4888186377717941 -0.4888186377717942
v -0.29554134033018264 -0.29554134033018253 -0.2955413403301826
v -0.20562273127563624 -0.6167202066983493 -0.20562273127563604
v -0.4888186377717943 -0.4888186377717942 -0.05032839370603317
v -0.6167202066983495 -0.20562273127563632 -0.20562273127563624
v -0.4888186377717942 -0.05032839370603335 -0.48881863777179435
v -0.20562273127563604 -0.205622731275636 -0.6167202066983494
#normal vector defs 
vn -1.0304555332245744e-16 0.5088905975096387 -0.8608312028303128
vn -0.5088905975096393 -5.273398556410105e-16 -0.8608312028303124
vn 0.5088905975096393 -4.586428200927055e-16 -0.8608312028303124
vn 6.869703554830504e-17 -0.5088905975096395 -0.8608312028303122
vn -6.64175345167758e-17 0.985986019952773 -0.16682796065914773
vn 0.985986019952773 1.2729794680891283e-16 -0.16682796065914757
vn -0.985986019952773 -8.573581102525757e-17 -0.16682796065914765
vn -4.058694152809136e-17 -0.9859860199527729 -0.1668279606591475
vn -0.7366155473187697 0.5690204730274329 -0.3655314442341534
vn 0.7366155473187695 0.5690204730274333 -0.36553144423415296
vn 0.5690204730274331 0.7366155473187698 -0.3655314442341529
vn -0.569020473027433 0.7366155473187695 -0.36553144423415324
vn 0.5690204730274329 -0.7366155473187697 -0.3655314442341532
vn 0.7366155473187699 -0.5690204730274329 -0.3655314442341532
vn -0.5690204730274326 -0.73661554731877 -0.36553144423415346
vn -0.7366155473187698 -0.5690204730274327 -0.36553144423415357
vn -0.36553144423415246 0.7366155473187695 -0.5690204730274335
vn 0.7366155473187695 0.3655314442341532 -0.5690204730274331
vn 0.3655314442341527 0.7366155473187698 -0.5690204730274331
vn -0.7366155473187697 0.36553144423415274 -0.5690204730274331
vn -0.36553144423415235 -0.7366155473187698 -0.5690204730274332
vn 0.36553144423415296 -0.7366155473187699 -0.5690204730274332
vn 0.7366155473187697 -0.3655314442341528 -0.5690204730274331
vn -0.7366155473187697 -0.3655314442341532 -0.5690204730274332
vn -0.1668279606591471 -1.6973059574521677e-16 -0.985986019952773
vn 0.16682796065914696 1.0885018345307993e-16 -0.9859860199527729
vn 4.24326489363042e-16 0.16682796065914737 -0.985986019952773
vn -5.774550291606391e-16 -0.16682796065914715 -0.9859860199527729
vn -0.3655314442341525 0.5690204730274333 -0.7366155473187695
vn -0.5690204730274331 0.36553144423415285 -0.7366155473187697
vn 0.5690204730274332 0.3655314442341532 -0.7366155473187693
vn 0.36553144423415285 0.5690204730274337 -0.7366155473187693
vn 0.36553144423415296 -0.5690204730274334 -0.7366155473187695
vn -0.3655314442341525 -0.5690204730274337 -0.7366155473187695
vn 0.5690204730274333 -0.3655314442341528 -0.7366155473187694
vn -0.569020473027433 -0.3655314442341532 -0.7366155473187695
vn -0.8608312028303133 -3.434851777415236e-17 -0.5088905975096377
vn 0.8608312028303128 1.0304555332245721e-16 -0.5088905975096384
vn 4.412175977960795e-16 0.8608312028303127 -0.5088905975096387
vn -1.7174258887076207e-16 -0.8608312028303128 -0.5088905975096384
vn -0.985986019952773 0.1668279606591475 1.1205400114172392e-16
vn -0.16682796065914704 0.985986019952773 -1.0846726742821283e-16
vn 0.16682796065914715 -0.9859860199527729 -1.2593983652848164e-16
vn 0.8608312028303126 -0.5088905975096388 3.038235266994698e-16
vn -0.5088905975096385 0.8608312028303128 4.75566115570232e-16
vn 0.9859860199527729 -0.16682796065914718 -8.486529787260844e-17
vn -0.8608312028303128 0.5088905975096384 6.594207934697173e-16
vn 0.5088905975096382 -0.8608312028303129 1.030455533224572e-16
vn 0.8608312028303127 0.5088905975096387 -6.869703554830481e-17
vn -0.16682796065914698 -0.985986019952773 -4.3407843191868084e-17
vn -0.8608312028303131 -0.508890597509638 4.586428200927047e-16
vn 0.16682796065914696 0.9859860199527729 -2.9702854255412945e-16
vn -0.9859860199527729 -0.16682796065914707 -6.614498138805987e-16
vn -0.5088905975096388 -0.8608312028303126 3.555972667702477e-16
vn 0.985986019952773 0.16682796065914707 -9.197371223148502e-16
vn 0.5088905975096392 0.8608312028303122 2.1820319567363756e-16
vn -3.899457845444001e-16 -0.8608312028303127 0.5088905975096388
vn 0.8608312028303128 -3.381720444736224e-16 0.5088905975096388
vn 1.4950616012533263e-16 0.8608312028303122 0.5088905975096395
vn -0.8608312028303127 3.3817204447362207e-16 0.5088905975096386
vn -0.569020473027433 0.3655314442341529 0.7366155473187698
vn -0.36553144423415257 0.5690204730274332 0.7366155473187698
vn 0.5690204730274332 -0.36553144423415296 0.7366155473187698
vn 0.3655314442341531 -0.5690204730274329 0.7366155473187698
vn -0.5690204730274331 -0.3655314442341527 0.7366155473187695
vn -0.36553144423415246 -0.5690204730274335 0.7366155473187697
vn 0.5690204730274331 0.36553144423415285 0.7366155473187699
vn 0.36553144423415274 0.5690204730274332 0.7366155473187697
vn -7.094195850415418e-16 0.16682796065914723 0.985986019952773
vn 2.998494442179064e-16 -0.16682796065914712 0.985986019952773
vn 0.16682796065914715 -1.9322788419790644e-16 0.9859860199527729
vn -0.1668279606591468 1.9322788419790637e-16 0.9859860199527731
vn -0.7366155473187695 0.3655314442341529 0.5690204730274332
vn -0.3655314442341526 0.7366155473187698 0.5690204730274333
vn 0.7366155473187697 -0.3655314442341529 0.5690204730274332
vn -0.7366155473187698 -0.36553144423415274 0.569020473027433
vn -0.36553144423415257 -0.7366155473187697 0.5690204730274334
vn 0.36553144423415324 -0.7366155473187695 0.5690204730274331
vn 0.7366155473187697 0.3655314442341528 0.569020473027433
vn 0.36553144423415274 0.7366155473187699 0.5690204730274331
vn -0.5690204730274332 0.7366155473187699 0.3655314442341527
vn -0.7366155473187698 -0.569020473027433 0.36553144423415274
vn -0.5690204730274331 -0.7366155473187698 0.3655314442341528
vn 0.7366155473187698 0.5690204730274333 0.3655314442341524
vn 0.5690204730274334 0.7366155473187698 0.36553144423415235
vn -0.7366155473187697 0.5690204730274335 0.3655314442341526
vn 0.5690204730274334 -0.7366155473187695 0.36553144423415285
vn 0.7366155473187695 -0.5690204730274332 0.36553144423415274
vn -0.9859860199527731 2.3799383767020546e-16 0.1668279606591469
vn 1.7342201056164264e-16 -0.9859860199527731 0.16682796065914685
vn -2.5459589361782506e-16 0.9859860199527729 0.16682796065914696
vn 0.985986019952773 -1.9643170188655029e-16 0.166827960659147
vn -0.5088905975096383 1.717425888707619e-16 0.8608312028303128
vn 1.373940710966095e-16 -0.5088905975096384 0.8608312028303128
vn 0.5088905975096378 -6.990824445117712e-16 0.8608312028303132
vn -5.616883734151616e-16 0.508890597509638 0.860831202830313
#face defs 
f 4//1 5//1 2//1 
f 3//2 4//2 2//2 
f 2//3 5//3 1//3 
f 3//4 2//4 1//4 
f 44//5 43//5 33//5 31//5 5//5 4//5 
f 5//6 31//6 37//6 52//6 58//6 1//6 
f 86//7 85//7 38//7 44//7 4//7 3//7 
f 58//8 57//8 80//8 86//8 3//8 1//8 
f 43//9 44//9 39//9 
f 33//10 32//10 31//10 
f 32//11 37//11 31//11 
f 39//12 44//12 38//12 
f 53//13 58//13 52//13 
f 57//14 58//14 53//14 
f 85//15 86//15 81//15 
f 81//16 86//16 80//16 
f 40//17 39//17 38//17 
f 33//18 34//18 32//18 
f 36//19 37//19 32//19 
f 42//20 43//20 39//20 
f 84//21 85//21 81//21 
f 54//22 53//22 52//22 
f 56//23 57//23 53//23 
f 82//24 81//24 80//24 
f 15//25 40//25 38//25 85//25 84//25 11//25 
f 54//26 52//26 37//26 36//26 10//26 9//26 
f 20//27 34//27 33//27 43//27 42//27 16//27 
f 82//28 80//28 57//28 56//28 30//28 29//28 
f 40//29 41//29 39//29 
f 41//30 42//30 39//30 
f 34//31 35//31 32//31 
f 35//32 36//32 32//32 
f 54//33 55//33 53//33 
f 83//34 84//34 81//34 
f 55//35 56//35 53//35 
f 82//36 83//36 81//36 
f 12//37 15//37 11//37 
f 9//38 10//38 7//38 
f 17//39 20//39 16//39 
f 29//40 30//40 27//40 
f 42//41 41//41 64//41 63//41 18//41 16//41 
f 65//42 64//42 41//42 40//42 15//42 14//42 
f 79//43 78//43 55//43 54//43 9//43 8//43 
f 8//44 9//44 7//44 
f 18//45 17//45 16//45 
f 30//46 56//46 55//46 78//46 77//46 26//46 
f 14//47 15//47 12//47 
f 27//48 30//48 26//48 
f 7//49 10//49 6//49 
f 84//50 83//50 66//50 72//50 13//50 11//50 
f 13//51 12//51 11//51 
f 10//52 36//52 35//52 45//52 51//52 6//52 
f 68//53 66//53 83//53 82//53 29//53 28//53 
f 28//54 29//54 27//54 
f 47//55 45//55 35//55 34//55 20//55 19//55 
f 19//56 20//56 17//56 
f 28//57 27//57 26//57 
f 8//58 7//58 6//58 
f 18//59 19//59 17//59 
f 13//60 14//60 12//60 
f 63//61 64//61 60//61 
f 64//62 65//62 60//62 
f 77//63 78//63 74//63 
f 78//64 79//64 74//64 
f 68//65 67//65 66//65 
f 67//66 72//66 66//66 
f 47//67 46//67 45//67 
f 46//68 51//68 45//68 
f 63//69 62//69 48//69 47//69 19//69 18//69 
f 77//70 76//70 69//70 68//70 28//70 26//70 
f 51//71 50//71 73//71 79//71 8//71 6//71 
f 72//72 71//72 59//72 65//72 14//72 13//72 
f 62//73 63//73 60//73 
f 60//74 65//74 59//74 
f 76//75 77//75 74//75 
f 68//76 69//76 67//76 
f 71//77 72//77 67//77 
f 74//78 79//78 73//78 
f 47//79 48//79 46//79 
f 50//80 51//80 46//80 
f 61//81 60//81 59//81 
f 69//82 70//82 67//82 
f 70//83 71//83 67//83 
f 48//84 49//84 46//84 
f 49//85 50//85 46//85 
f 61//86 62//86 60//86 
f 75//87 74//87 73//87 
f 75//88 76//88 74//88 
f 61//89 59//89 71//89 70//89 23//89 21//89 
f 70//90 69//90 76//90 75//90 24//90 23//90 
f 25//91 49//91 48//91 62//91 61//91 21//91 
f 75//92 73//92 50//92 49//92 25//92 24//92 
f 23//93 22//93 21//93 
f 23//94 24//94 22//94 
f 24//95 25//95 22//95 
f 22//96 25//96 21//96 
