#Produced by polyHédronisme http://levskaya.github.com/polyhedronisme
group kD
#vertices
v -2.852124130259774e-17 -1.728560078945318e-17 1
v 0.6666641755490578 -1.728560078945318e-17 0.7453529757956785
v -0.33333208777452894 0.577316505833886 0.7453529757956785
v -0.33333208777452894 -0.577316505833886 0.7453529757956785
v 0.7453529757956785 0.5773482675833979 0.33333208777452894
v 0.7453529757956785 -0.577316505833886 0.33333208777452894
v -0.8726746195596327 0.3568208357076798 0.33333208777452894
v 0.1273216437639541 0.9341691032910777 0.33333208777452894
v 0.1273216437639541 -0.9341691032910777 0.33333208777452894
v -0.8726746195596327 -0.3568208357076798 0.33333208777452894
v 0.8726746195596327 0.3568208357076798 -0.33333208777452883
v 0.8726746195596327 -0.3568208357076798 -0.33333208777452883
v -0.7453529757956785 0.577316505833886 -0.33333208777452883
v -0.12732164376395416 0.9341691032910777 -0.33333208777452883
v -0.12732164376395416 -0.9341691032910777 -0.33333208777452883
v -0.7453529757956785 -0.5773482675833979 -0.33333208777452883
v 0.33333208777452883 0.577316505833886 -0.7453529757956785
v 0.33333208777452883 -0.577316505833886 -0.7453529757956785
v -0.6666641755490578 -1.728560078945318e-17 -0.7453529757956785
v -2.852124130259774e-17 -1.728560078945318e-17 -1
v 0.2695553726679813 0.46687933282653904 0.7057082813169683
v -0.5391126844211106 -1.728560078945318e-17 0.7057080800575484
v 0.26955622626222037 -0.46687325066471425 0.705707776523151
v 0.8723023481626034 0.000006352349902358025 0.16659490448946265
v -0.43615200452059977 0.7554230316638492 0.16659522168975807
v -0.4361510317611497 -0.7554296541851946 0.16659654324804554
v 0.4361510317611497 0.7554296541851946 -0.16659654324804543
v 0.43615200452059966 -0.7554230316638492 -0.16659522168975796
v -0.8723023481626034 -0.000006352349902392596 -0.16659490448946254
v 0.5391126844211106 -1.728560078945318e-17 -0.7057080800575483
v -0.2695562262622205 0.46687325066471425 -0.7057077765231509
v -0.2695553726679814 -0.46687933282653904 -0.7057082813169683
#normal vector defs 
vn -0.3332421308176242 -0.3575237099619259 -0.8724256295313602
vn -0.14298180866814167 -0.4673698193897573 -0.8724228643917883
vn 0.47624197763459325 -0.10984286290712988 -0.872426572387073
vn 0.47624197763459325 0.10984286290712988 -0.872426572387073
vn -0.1429873257501489 0.46737207339749187 -0.8724207526663671
vn -0.33324153610245877 0.3575280635342046 -0.8724240725711063
vn -0.4750293139157851 -0.46735338206712784 -0.745605771967409
vn -0.16719270499735986 -0.6450604994234436 -0.745616222650261
vn 0.6422501449575311 0.17772423002692994 -0.7456063635480624
vn 0.6422501449575311 -0.17772423002692994 -0.7456063635480624
vn -0.1671989019777546 0.6450556947405661 -0.7456189897395311
vn -0.47503965551741784 0.46736692407906905 -0.7455906946594509
vn -0.372427420392248 -0.6450627084420733 -0.6672270368602822
vn 0.7448600802444401 0 -0.6672206987633451
vn -0.372456488511171 0.645055637421923 -0.667217647245728
vn 0.5633922753792401 0.7561927090048723 -0.33280885037942626
vn 0.3731879365109492 0.8660058306010006 -0.3328132590624523
vn 0.37319568372278766 -0.8660058232191512 -0.332804591015811
vn 0.5633890042093421 -0.7561983621202418 -0.33280154305932713
vn -0.936586806538476 0.10983945596404006 -0.3327768737932118
vn -0.9365864996617396 -0.10983509803489426 -0.3327791758674745
vn 0.9999997227471686 0 0.0007446513182455687
vn -0.5000335362317799 0.8660057252208532 0.0007392754867319443
vn -0.5000001510546895 -0.8660249863479096 0.0007562845965770222
vn 0.3339936818637896 0.9339020321118078 -0.1275743504490848
vn 0.6417879965004573 0.7561965414425024 -0.1275733446231108
vn 0.6417931163463224 -0.7561983379745424 -0.12753693368987543
vn 0.33400420206660764 -0.9338977207451323 -0.1275783688126467
vn -0.9757763284684807 0.1777210714228384 -0.1275765557337621
vn -0.9757778826371565 -0.17771757220555615 -0.12756954293839426
vn 0.9757763284684808 -0.17772107142283844 0.12757655573376211
vn 0.9757778826371565 0.17771757220555615 0.1275695429383943
vn -0.6417931163463225 0.7561983379745422 0.1275369336898754
vn -0.3340042020666076 0.9338977207451323 0.12757836881264667
vn -0.3339936818637896 -0.9339020321118078 0.1275743504490848
vn -0.6417879965004573 -0.7561965414425024 0.1275733446231108
vn 0.5000001510546895 0.8660249863479096 -0.0007562845965770028
vn 0.5000335362317799 -0.8660057252208532 -0.0007392754867320222
vn -0.9999997227471686 0 -0.0007446513182455687
vn 0.9365864996617396 0.10983509803489423 0.3327791758674746
vn 0.936586806538476 -0.10983945596404006 0.33277687379321186
vn -0.5633890042093423 0.7561983621202417 0.33280154305932713
vn -0.37319568372278766 0.8660058232191512 0.3328045910158112
vn -0.3731879365109492 -0.8660058306010004 0.3328132590624523
vn -0.56339227537924 -0.7561927090048723 0.33280885037942615
vn 0.3724564885111709 -0.6450556374219227 0.6672176472457281
vn -0.7448600802444401 0 0.6672206987633451
vn 0.3724274203922479 0.645062708442073 0.6672270368602824
vn 0.16719890197775444 -0.6450556947405661 0.7456189897395311
vn 0.4750396555174177 -0.46736692407906893 0.745590694659451
vn -0.642250144957531 0.17772423002692994 0.7456063635480622
vn -0.642250144957531 -0.17772423002692994 0.7456063635480622
vn 0.475029313915785 0.46735338206712795 0.7456057719674091
vn 0.1671927049973598 0.6450604994234435 0.745616222650261
vn 0.33324153610245877 -0.35752806353420447 0.8724240725711063
vn 0.14298732575014875 -0.46737207339749176 0.8724207526663671
vn -0.47624197763459314 -0.10984286290712997 0.8724265723870732
vn -0.47624197763459314 0.10984286290712997 0.8724265723870732
vn 0.14298180866814167 0.4673698193897573 0.8724228643917883
vn 0.33324213081762416 0.35752370996192584 0.87242562953136
#face defs 
f 20//1 32//1 19//1 
f 18//2 32//2 20//2 
f 20//3 30//3 18//3 
f 17//4 30//4 20//4 
f 20//5 31//5 17//5 
f 19//6 31//6 20//6 
f 19//7 32//7 16//7 
f 15//8 32//8 18//8 
f 11//9 30//9 17//9 
f 18//10 30//10 12//10 
f 17//11 31//11 14//11 
f 13//12 31//12 19//12 
f 16//13 32//13 15//13 
f 12//14 30//14 11//14 
f 14//15 31//15 13//15 
f 17//16 27//16 11//16 
f 14//17 27//17 17//17 
f 18//18 28//18 15//18 
f 12//19 28//19 18//19 
f 19//20 29//20 13//20 
f 16//21 29//21 19//21 
f 11//22 24//22 12//22 
f 13//23 25//23 14//23 
f 15//24 26//24 16//24 
f 8//25 27//25 14//25 
f 11//26 27//26 5//26 
f 6//27 28//27 12//27 
f 15//28 28//28 9//28 
f 13//29 29//29 7//29 
f 10//30 29//30 16//30 
f 12//31 24//31 6//31 
f 5//32 24//32 11//32 
f 7//33 25//33 13//33 
f 14//34 25//34 8//34 
f 9//35 26//35 15//35 
f 16//36 26//36 10//36 
f 5//37 27//37 8//37 
f 9//38 28//38 6//38 
f 7//39 29//39 10//39 
f 2//40 24//40 5//40 
f 6//41 24//41 2//41 
f 3//42 25//42 7//42 
f 8//43 25//43 3//43 
f 4//44 26//44 9//44 
f 10//45 26//45 4//45 
f 6//46 23//46 9//46 
f 10//47 22//47 7//47 
f 8//48 21//48 5//48 
f 9//49 23//49 4//49 
f 2//50 23//50 6//50 
f 7//51 22//51 3//51 
f 4//52 22//52 10//52 
f 5//53 21//53 2//53 
f 3//54 21//54 8//54 
f 1//55 23//55 2//55 
f 4//56 23//56 1//56 
f 1//57 22//57 4//57 
f 3//58 22//58 1//58 
f 1//59 21//59 3//59 
f 2//60 21//60 1//60 
